# xmcd
#
# Track frame offsets: 
#        150
#        12992
#        22638
#        32138
#        44710
#        55422
#        69308
#        80962
#        95113
#        105405
#        117083
#        125212
#        138308
#        148535
#        158440
#        170145
#
# Disc length: 2533 seconds
#
# Revision: 4
# Processed by: cddbd v1.5.2PL0 Copyright (c) Steve Scherf et al.
# Submitted via: ExactAudioCopyFreeDBPlugin 1.0
#
DISCID=de09e310
DTITLE=Various Artist - The Banjos That Destroyed The World
DYEAR=1995
DGENRE=Country Instrumental
TTITLE0=Wynn Osborne and Special Guest , Itisi - Intro: The Banjos Prepa
TTITLE0=re For Battle - Bluegrass Breakdown 
TTITLE1=Wynn Osborne - Randy Lynn Rag
TTITLE2=Pinnacle Boys - Maryville Breakdown
TTITLE3=Wynn Osborne - Flint Hill Special
TTITLE4=Wynn Osborne - Banjo Signal
TTITLE5=The Nashville Superpickers - Paperback Writer
TTITLE6=Wynn Osborne - Dear Old Dixie
TTITLE7=The Nashville Superpickers - Take It Easy
TTITLE8=The Stonemans - Heartbreak Mountain
TTITLE9=Wynn Osborne - Bugle Call Rag
TTITLE10=Don Reno - Charlotte Breakdown
TTITLE11=Wynn Osborne - Farewell Blues
TTITLE12=Wynn Osborne - Earl's Breakdown
TTITLE13=Don Reno - Limehouse Blues
TTITLE14=Wynn Osborne - Foggy Mountain Breakdown
TTITLE15=Wynn Osborne - I've Got A Woman
EXTD=YEAR: 1995
EXTT0=
EXTT1=
EXTT2=
EXTT3=
EXTT4=
EXTT5=
EXTT6=
EXTT7=
EXTT8=
EXTT9=
EXTT10=
EXTT11=
EXTT12=
EXTT13=
EXTT14=
EXTT15=
PLAYORDER=
